<svg xmlns="http://www.w3.org/2000/svg" width="512" height="512" enable-background="new 0 0 512 512" viewBox="0 0 512 512"><path d="M200.197 212.741c21.485 0 38.965-17.479 38.965-38.964 0-21.485-17.479-38.965-38.965-38.965-21.485 0-38.964 17.479-38.964 38.965C161.233 195.262 178.712 212.741 200.197 212.741zM200.197 146.813c14.869 0 26.965 12.097 26.965 26.965s-12.096 26.964-26.965 26.964c-14.868 0-26.964-12.096-26.964-26.964S185.329 146.813 200.197 146.813zM372.664 290.744c-8.221-10.141-17.305-19.275-27.101-27.337l40.71-40.709H250.707v.071c-7.199-.855-14.493-1.295-21.856-1.295-28.583 0-56.136 6.568-81.023 18.851.001-.117.009-.232.009-.351 0-15.287-12.437-27.724-27.723-27.724-15.286 0-27.723 12.437-27.723 27.724 0 11.541 7.091 21.454 17.144 25.62-10.358 8.844-19.893 18.9-28.399 30.108l-2.753 3.628 2.753 3.628c35.804 47.173 89.645 74.229 147.716 74.229 56.001 0 108.062-25.168 143.813-69.269l60.954 49.059V241.685L372.664 290.744zM357.303 234.698l-21.329 21.328c-12.05-8.675-25.016-15.83-38.662-21.328H357.303zM104.391 239.975c0-8.67 7.053-15.724 15.723-15.724 8.67 0 15.723 7.054 15.723 15.724 0 3.025-.874 5.844-2.36 8.244-3.752 2.289-7.426 4.722-11.022 7.285-.766.115-1.543.193-2.341.193C111.444 255.697 104.391 248.645 104.391 239.975zM363.313 300.392c-33.461 41.252-82.131 64.796-134.461 64.796-52.781 0-101.848-23.941-135.333-65.856 10.021-12.544 21.446-23.465 33.941-32.629 4.633-3.398 9.41-6.561 14.323-9.465 16.292-9.628 34.034-16.491 52.637-20.29v103.24h12V234.95c7.378-.967 14.865-1.476 22.432-1.476 52.331 0 101 23.545 134.461 64.796l-1.318 1.061L363.313 300.392zM421.618 331.915l-40.485-32.584 40.485-32.584V331.915z"/><rect width="14" height="14.742" x="154.005" y="273.89"/></svg>