<svg xmlns="http://www.w3.org/2000/svg" enable-background="new 0 0 64 64" viewBox="0 0 64 64"><path d="M26.6,11.4c0.4-0.2,1.7-0.6,2.5-0.2c0.4,0.2,0.7,0.6,0.9,1.2c0.1,0.4,0.5,0.7,0.9,0.7c0.1,0,0.2,0,0.3,0c0.5-0.1,0.8-0.7,0.7-1.2c-0.4-1.5-1.3-2.1-1.9-2.4c-1.8-0.8-3.9,0.1-4.1,0.2c-0.5,0.2-0.7,0.8-0.5,1.3C25.5,11.4,26.1,11.6,26.6,11.4z"/><path d="M27.7 14.2c.7 0 1.3-.4 1.5-.7.4-.4.3-1-.1-1.4-.4-.4-1-.3-1.4.1-.1.1-.3 0-.5-.1-.4-.3-1-.2-1.3.2-.3.4-.2 1 .2 1.3C26.8 14 27.3 14.2 27.7 14.2zM32.8 13.1c.1 0 .2 0 .3 0 .4 0 .8-.3.9-.7.2-.6.5-1 .9-1.2.8-.4 2.1 0 2.5.2.5.2 1.1 0 1.3-.5.2-.5 0-1.1-.5-1.3-.2-.1-2.3-1-4.1-.2-.7.3-1.5 1-1.9 2.4C31.9 12.4 32.2 13 32.8 13.1z"/><path d="M36.9 12c-.8.5-1.1.3-1.3.1-.4-.4-1-.4-1.4-.1-.4.4-.4 1-.1 1.4.3.4 1 .8 1.9.8.6 0 1.2-.2 1.9-.7.4-.3.6-.9.2-1.3C38 11.8 37.4 11.7 36.9 12zM30.5 15c0 .4.1.7.2 1.1.1.2.2.6.4 1 .1.1.2.2.2.3 0 0 0 0 .1.1l0 0c0 .1 0 .2 0 .3 0 .5.4 1 1 1 .5 0 1-.4 1-1l0-.4c0-.6-.3-1-.5-1.2 0 0-.1-.1-.1-.1-.1-.1-.1-.3-.2-.5-.1-.3-.1-.5-.2-.8-.1-.5-.6-.9-1.1-.8C30.8 14 30.5 14.4 30.5 15zM31.9 19.5c-1.2-.5-2.4.2-3 .7-.4.4-.4 1-.1 1.4.3.4 1 .4 1.4.1 0 0 .7-.6 1.1-.3.3.3.8.3 1.2 0 .4-.3 1.1.2 1.1.2.2.2.4.2.6.2.3 0 .5-.1.7-.3.4-.4.3-1-.1-1.4C34.4 19.7 33.1 19.1 31.9 19.5z"/><path d="M58.9,59h-0.6c0.8-2.5,0.5-4.6-1-6.1c-1.2-1.1-2.6-1.3-3.8-1.5c-0.9-0.1-1.7-0.2-2.4-0.6c-0.1,0-0.1-0.1-0.1-0.2c0,0,0,0,0,0c0,0,0,0,0,0c0,0,0-0.1,0-0.2c1.7-4.9,0.7-15.7,0.6-16.7c0.1-4.7-3.4-6.6-5.2-6.9l-8.5-2.1v-1.1c0.2-0.1,0.3-0.2,0.5-0.4c0.3,0.6,0.8,1.1,1.5,1.2c0.1,0,0.2,0,0.3,0c1,0,1.7-0.9,2-1.8c0.3-1.1,0-2.1-0.2-3c0-0.2-0.1-0.3-0.1-0.5c1.8-3.3,1.1-10.6,1-11.4c-0.1-3.1-2.1-5.5-5.6-6.9c-3.3-1.3-7.1-1.3-10.4,0c-3.6,1.4-5.5,3.8-5.6,6.8C21,8.6,20.4,15.6,22,19c0,0.2-0.1,0.3-0.1,0.5c-0.3,1.1-0.5,2.3-0.2,3.4c0.2,1,1,1.9,2.1,1.9c0.1,0,0.2,0,0.3,0c0.7-0.1,1.1-0.6,1.4-1.1c0.1,0,0.1,0.1,0.2,0.1c0.2,0.1,0.3,0.2,0.5,0.4v0.6l-8.4,2.1c-1.9,0.3-5.3,2.1-5.3,6.9c-0.1,1-1.2,11.8,0.6,16.7c0,0.1,0,0.1,0,0.2c0,0,0,0,0,0c0,0,0,0,0,0c0,0.1-0.1,0.2-0.2,0.2c-0.7,0.4-1.5,0.5-2.3,0.6c-1.5,0.2-3.2,0.4-4.3,2.2c-0.6,1-0.9,2.2-0.8,3.6c0,0.6,0.1,1.2,0.3,1.7H5.1c-0.5,0-1,0.4-1,1v3c0,0.5,0.4,1,1,1h53.8c0.5,0,1-0.4,1-1v-3C59.9,59.5,59.4,59,58.9,59z M24.4,19.2C24.4,19.2,24.4,19.2,24.4,19.2c0-0.1,0-0.2,0-0.2c0-0.1,0-0.2,0-0.2c0-0.6-0.1-1.3-0.1-1.9c0-1.4-0.1-3.3,0.1-5.2c0.1-0.9,0.2-1.8,0.5-2.6c0.2-0.6,0.7-0.7,1.8-0.9l0.2,0c1.6-0.3,3.3-0.5,4.9-0.6c1.7,0,3.3,0.2,4.9,0.6l0.2,0c1.1,0.2,1.6,0.4,1.8,1c0.3,0.8,0.4,1.7,0.5,2.6c0.1,1.3,0.2,2.6,0.2,3.7c0,0.1,0,0.1,0,0.2c0,0.4,0,0.8,0,1.2c0,0.6-0.1,1.3-0.1,1.9c0,0.1,0,0.2,0,0.3c0,0,0,0.1,0,0.1c-0.2,0.2-0.3,0.4-0.5,0.6c-0.1,0.1-0.2,0.2-0.3,0.3c-0.2,0.3-0.5,0.6-0.7,0.8c0,0,0,0,0,0.1c-0.3,0.3-0.6,0.6-0.9,0.8c-0.2,0.2-0.5,0.4-0.8,0.6c-2.2,1.6-4.8,2.1-7.1,1.3c-0.9-0.3-1.7-0.8-2.5-1.4c-0.4-0.3-0.7-0.6-1-1C25.2,20.7,24.8,20,24.4,19.2z M35.9,25.5C35.9,25.5,35.9,25.5,35.9,25.5l0,1.8c-0.4,0.4-1.6,1.4-3.9,1.5c-1.2-0.1-2.1-0.3-2.8-0.6c-0.6-0.3-1-0.7-1.2-0.9v-2c0.2,0.1,0.4,0.2,0.6,0.2c0.9,0.3,1.9,0.5,2.8,0.5c1.5,0,3-0.4,4.5-1.1V25.5z M40.2,22.2c0,0.1-0.1,0.2-0.1,0.3c-0.1-0.1-0.2-0.4-0.3-0.7c0.2-0.2,0.3-0.4,0.5-0.6C40.3,21.6,40.3,21.9,40.2,22.2z M23.1,7.9c0.1-2.3,1.6-4,4.4-5.2c1.4-0.6,3-0.8,4.5-0.8c1.5,0,3.1,0.3,4.5,0.8c2.8,1.1,4.3,2.8,4.4,5.2c0,0.3,0.1,0.6,0.1,1c-0.1-0.2-0.1-0.4-0.2-0.6c-0.7-1.6-2.1-1.9-3.2-2.1l-0.2,0c-1.7-0.4-3.5-0.6-5.3-0.6c-1.8,0-3.6,0.3-5.3,0.6l-0.2,0c-1.1,0.2-2.6,0.5-3.2,2.1C23.1,8.6,23,8.8,23,9C23,8.6,23,8.2,23.1,7.9z M23.7,22.8c-0.1-0.1-0.2-0.2-0.2-0.4c-0.1-0.3-0.1-0.6-0.1-0.9c0.1,0.2,0.2,0.3,0.3,0.5c0,0,0.1,0.1,0.1,0.1c0,0.1,0.1,0.1,0.1,0.2C23.9,22.6,23.8,22.7,23.7,22.8z M26.2,28.1c0,0,0.2,0.4,0.7,0.8c0.8,0.7,2.4,1.7,5,1.8c4.1-0.2,5.6-2.5,5.7-2.6c0.1-0.2,0.2-0.3,0.2-0.5v-0.9l0.8,0.2c0.1,3,0.3,14.9-3.6,18.8c-0.9,0.9-1.8,1.2-3,1.2c0,0-0.1,0-0.1,0c-1.2,0.1-2.1-0.3-3-1.2c-3.9-3.9-3.7-15.8-3.6-18.8l0.8-0.2v0.9C26.1,27.8,26.1,28,26.2,28.1z M14.3,33.9c0,0,0-0.1,0-0.1c-0.1-4.2,3.3-4.9,3.7-5l5.3-1.3c-0.1,3.9-0.1,15.4,4.2,19.7c1.2,1.2,2.7,1.8,4.4,1.7c0.1,0,0.2,0,0.4,0c1.6,0,2.9-0.6,4.1-1.7c4.3-4.3,4.3-15.8,4.2-19.7l5.4,1.3c0.4,0.1,3.7,0.8,3.6,5c0,0,0,0.1,0,0.1c0,0.1,1.2,11.3-0.5,15.9c0,0,0,0,0,0c0,0.1-0.1,0.2-0.1,0.3c-0.3,0.1-0.6,0.2-0.9,0.3c-0.2,0.1-0.4,0.1-0.7,0.2c-0.5,0.1-1,0.3-1.5,0.4c-0.1,0-0.3,0.1-0.4,0.1c-0.6,0.2-1.3,0.3-1.9,0.4c-0.1,0-0.2,0-0.3,0.1c-0.5,0.1-1,0.2-1.5,0.3c-0.2,0-0.4,0.1-0.6,0.1c-0.1,0-0.1,0-0.2,0c-0.1-0.6-0.3-1.1-0.7-1.6c-1.4-1.5-3.6-1.4-5.2-1.3c-0.3,0-0.5,0-0.8,0L32,49.3c0,0,0,0,0,0c0,0,0,0,0,0l-2.3,0.1c-0.3,0-0.6,0-0.9,0c-1.1,0-2.2,0-3.3,0.4c-1.1,0.3-1.8,0.9-2.2,1.7c-0.1,0.3-0.2,0.6-0.3,1c0,0-0.1,0-0.1,0c-0.1,0-0.3,0-0.4-0.1c-0.3,0-0.5-0.1-0.8-0.1c-0.1,0-0.3-0.1-0.4-0.1c-0.2,0-0.3-0.1-0.5-0.1c-0.1,0-0.3-0.1-0.4-0.1c-0.1,0-0.3-0.1-0.4-0.1c-0.1,0-0.3-0.1-0.4-0.1c-0.1,0-0.3-0.1-0.4-0.1c-0.1,0-0.3-0.1-0.4-0.1c-0.1,0-0.2-0.1-0.3-0.1c-0.1,0-0.2-0.1-0.4-0.1c-0.1,0-0.2-0.1-0.3-0.1c-0.1,0-0.2-0.1-0.3-0.1c-0.1,0-0.2-0.1-0.3-0.1c-0.4-0.1-0.8-0.3-1.1-0.4c0,0-0.1,0-0.1,0c-0.1,0-0.2-0.1-0.3-0.1c0,0-0.1,0-0.1,0c-0.1,0-0.2-0.1-0.3-0.1c0,0,0,0-0.1,0c-0.1,0-0.2-0.1-0.2-0.1c0,0,0,0,0,0c0-0.1-0.1-0.3-0.1-0.4C13.1,45.2,14.3,34,14.3,33.9z M37.7,52.5c-0.3,0-0.7,0.1-1,0.1c-0.2,0-0.4,0-0.7,0.1c-0.3,0-0.7,0.1-1,0.1c-0.2,0-0.4,0-0.6,0c-0.3,0-0.7,0-1,0.1c-0.2,0-0.3,0-0.5,0c0,0,0,0,0,0v-1.7l1.5-0.1c0.3,0,0.5,0,0.8,0c1.3-0.1,2.9-0.2,3.6,0.6c0.1,0.2,0.2,0.4,0.2,0.6c-0.3,0-0.5,0.1-0.8,0.1C38.1,52.5,37.9,52.5,37.7,52.5z M28.8,53c-0.2,0-0.4,0-0.6,0c-0.2,0-0.5,0-0.7,0c-0.2,0-0.4,0-0.6,0c-0.2,0-0.5,0-0.7,0c-0.2,0-0.4,0-0.5,0c-0.2,0-0.4,0-0.6-0.1c-0.1,0-0.2,0-0.3,0c0-0.1,0-0.3,0.1-0.4c0.2-0.4,0.7-0.6,1-0.7c0.8-0.3,1.8-0.3,2.8-0.3c0.3,0,0.7,0,1,0l1.3,0V53c-0.3,0-0.6,0-0.9,0c-0.2,0-0.3,0-0.5,0C29.3,53,29,53,28.8,53z M7.2,57.1c-0.1-0.7,0-1.7,0.5-2.4c0.6-0.9,1.5-1.1,3-1.3c1-0.1,2.1-0.3,3-0.8c0.2-0.1,0.4-0.3,0.5-0.4c0.1,0.1,0.2,0.1,0.4,0.2c0,0,0.1,0,0.1,0c0.1,0.1,0.3,0.1,0.5,0.2c0,0,0.1,0,0.1,0.1c0.2,0.1,0.4,0.2,0.6,0.2c0.1,0,0.1,0,0.2,0.1c0.2,0.1,0.4,0.1,0.7,0.2c0,0,0.1,0,0.1,0c0.3,0.1,0.6,0.2,0.9,0.3c0.1,0,0.1,0,0.2,0.1c0.3,0.1,0.6,0.2,0.9,0.2c0,0,0.1,0,0.1,0c0.3,0.1,0.7,0.2,1.1,0.3c0.1,0,0.2,0,0.3,0.1c0.4,0.1,0.8,0.2,1.2,0.2c0,0,0,0,0,0c0.4,0.1,0.8,0.1,1.3,0.2c0.1,0,0.2,0,0.3,0c0.5,0.1,0.9,0.1,1.4,0.2c0.1,0,0.1,0,0.2,0c0.4,0,0.9,0.1,1.4,0.1c0.1,0,0.2,0,0.3,0c0.5,0,1.1,0.1,1.6,0.1c0.1,0,0.2,0,0.3,0c0.5,0,1,0,1.5,0c0.1,0,0.1,0,0.2,0c0,0,0.1,0,0.1,0c0.6,0,1.2,0,1.8,0c0.1,0,0.3,0,0.4,0c0.6,0,1.3-0.1,1.9-0.1c0,0,0.1,0,0.1,0c0.7-0.1,1.4-0.1,2.1-0.2c0.2,0,0.3,0,0.5-0.1c0.7-0.1,1.4-0.2,2.2-0.3c0.1,0,0.1,0,0.2,0c0.2,0,0.3-0.1,0.5-0.1c0.1,0,0.2,0,0.3,0c0.4-0.1,0.9-0.1,1.3-0.2c0.2,0,0.3-0.1,0.5-0.1c0.8-0.1,1.6-0.3,2.4-0.5c0.2,0,0.3-0.1,0.5-0.1c0.7-0.2,1.5-0.4,2.2-0.5c0.1,0,0.3-0.1,0.4-0.1c0.7-0.2,1.3-0.4,2-0.6c0.2,0.2,0.3,0.4,0.6,0.5c1,0.6,2.1,0.8,3.1,0.9c1.1,0.2,2.1,0.3,2.8,1c1.3,1.2,0.9,3.1,0.3,4.7H7.6C7.4,58.4,7.3,57.4,7.2,57.1z M57.9,62.1H6.1V61h1h49.8h1.1V62.1z"/></svg>