<?xml version="1.0" standalone="no"?>
<!DOCTYPE svg PUBLIC "-//W3C//DTD SVG 20010904//EN"
 "http://www.w3.org/TR/2001/REC-SVG-20010904/DTD/svg10.dtd">
<svg version="1.0" xmlns="http://www.w3.org/2000/svg"
 width="300.000000pt" height="367.000000pt" viewBox="0 0 300.000000 367.000000"
 preserveAspectRatio="xMidYMid meet">
<metadata>
Created by potrace 1.10, written by Peter Selinger 2001-2011
</metadata>
<g transform="translate(0.000000,367.000000) scale(0.100000,-0.100000)"
fill="#000000" stroke="none">
<path d="M1304 3646 c-3 -8 -4 -27 -2 -43 l3 -28 100 0 100 0 0 40 0 40 -98 3
c-78 2 -98 0 -103 -12z m166 -31 c0 -12 -14 -15 -70 -15 -56 0 -70 3 -70 15 0
12 14 15 70 15 56 0 70 -3 70 -15z"/>
<path d="M1247 3523 c-8 -10 -41 -61 -71 -112 -66 -112 -66 -115 -36 -355 17
-132 26 -171 55 -237 39 -89 37 -112 -13 -148 l-29 -20 -10 42 c-5 23 -14 41
-20 40 -6 -1 -21 9 -33 22 -20 22 -32 25 -91 25 l-67 0 -91 -71 c-50 -40 -91
-79 -91 -88 0 -9 20 -58 45 -109 l45 -93 -24 -26 c-13 -14 -32 -44 -41 -67
-10 -23 -23 -52 -30 -66 -7 -14 -10 -33 -6 -43 5 -15 16 0 45 59 21 44 47 90
57 103 27 34 24 52 -21 149 l-41 86 33 31 c69 65 138 105 181 105 51 0 113
-40 132 -87 18 -44 47 -43 92 2 31 31 35 39 30 78 -2 23 -16 69 -30 103 -31
70 -51 190 -63 369 l-6 90 46 80 c75 129 69 125 213 125 121 0 124 -1 151 -27
16 -16 50 -64 77 -108 45 -74 47 -81 35 -110 -26 -64 -24 -81 23 -167 68 -125
143 -227 172 -234 14 -3 55 -1 91 5 37 7 70 8 73 4 4 -4 27 -34 51 -66 45 -61
66 -77 98 -77 11 0 27 -12 37 -26 30 -47 50 -65 90 -87 l40 -21 -46 -6 c-67
-8 -189 -101 -176 -134 4 -9 28 -29 56 -46 86 -53 191 -194 232 -311 19 -54
24 -92 28 -244 l6 -180 79 -129 c43 -71 89 -152 101 -180 28 -65 55 -306 55
-499 0 -127 -1 -138 -17 -134 -10 3 -34 8 -54 11 -33 6 -37 10 -43 46 -4 28
-29 69 -85 143 -43 57 -91 128 -106 158 -28 55 -71 216 -105 390 -15 79 -26
108 -63 165 -49 76 -66 113 -103 223 -32 94 -51 123 -77 119 -36 -5 -56 -57
-63 -159 -8 -121 -14 -141 -88 -263 l-61 -101 -3 -95 c-3 -79 0 -105 18 -153
18 -49 26 -59 51 -64 16 -3 32 -10 37 -17 5 -6 16 -60 25 -120 11 -76 21 -115
34 -127 12 -13 48 -22 113 -30 101 -13 121 -25 145 -90 11 -29 170 -205 194
-214 8 -3 26 5 40 18 60 56 71 59 150 40 l71 -17 0 -146 0 -147 109 -114 c60
-63 108 -115 106 -117 -8 -8 -43 21 -144 121 -106 105 -108 107 -155 107 -26
0 -57 -7 -71 -16 -34 -22 -59 -10 -80 36 -10 22 -24 45 -31 51 -11 9 -10 16 6
36 41 52 30 74 -97 198 -65 63 -127 117 -138 119 -11 2 -53 9 -94 15 -68 11
-77 10 -93 -7 -18 -17 -18 -22 3 -142 11 -69 29 -152 40 -185 10 -33 19 -86
19 -118 0 -55 -1 -57 -22 -52 -13 3 -40 7 -61 9 -20 2 -37 7 -37 12 -1 5 -44
16 -98 26 -87 15 -158 32 -217 53 -16 5 -17 5 -5 -4 18 -13 7 -26 -13 -14 -9
4 -50 39 -92 77 -58 52 -73 71 -63 78 9 7 8 8 -6 4 -13 -5 -40 14 -102 70 -46
42 -81 81 -77 86 3 7 1 8 -6 4 -7 -5 -45 22 -99 71 -48 43 -102 92 -121 108
-20 17 -54 49 -78 73 -38 39 -41 46 -31 68 6 13 15 24 20 24 5 0 7 4 4 9 -6 9
22 26 37 22 5 -1 5 4 2 10 -5 8 -10 8 -18 0 -15 -15 -27 -14 -27 2 0 8 11 19
25 25 14 6 25 16 25 22 0 5 18 26 40 46 47 42 60 82 60 179 0 65 -4 78 -54
177 -32 62 -57 127 -61 155 -4 26 -12 62 -18 78 -7 17 -12 35 -12 40 -1 6 -7
21 -14 35 -9 15 -10 25 -3 28 6 2 -5 35 -26 77 -20 41 -39 72 -43 70 -15 -10
-31 56 -25 107 10 81 15 78 34 -22 5 -30 25 -86 42 -124 18 -39 34 -84 36
-100 1 -17 3 -33 4 -36 1 -12 20 27 20 43 0 10 -16 55 -35 99 -20 45 -42 108
-50 141 -18 77 -30 90 -56 58 -29 -35 -26 -127 5 -173 13 -20 29 -52 36 -72 6
-19 16 -38 21 -41 16 -11 10 -30 -13 -40 -21 -9 -23 -18 -26 -90 -2 -61 2 -92
18 -135 l21 -57 -26 -69 c-32 -86 -51 -117 -119 -202 -115 -144 -155 -212
-165 -281 l-6 -46 -58 -3 -57 -3 -1 68 c-1 83 -1 85 11 252 10 133 10 134 58
225 27 50 73 132 102 181 29 50 60 110 68 135 17 53 28 425 12 415 -6 -4 -10
7 -10 25 0 27 -41 98 -87 152 -16 18 -14 20 40 37 20 7 37 16 37 21 0 9 -129
45 -224 61 -38 6 -113 9 -167 7 -85 -4 -107 -9 -163 -37 -90 -44 -178 -146
-144 -167 6 -4 25 9 43 29 36 39 124 87 197 107 100 27 224 -9 311 -90 25 -22
71 -79 102 -126 l57 -85 -5 -72 c-3 -39 -8 -115 -12 -167 -7 -106 -17 -131
-127 -313 -111 -184 -107 -168 -134 -596 l-6 -104 62 6 c35 4 77 7 95 7 31 0
32 1 34 50 1 27 6 61 11 75 13 35 80 133 164 239 52 66 78 111 102 174 l32 85
22 -51 c12 -29 26 -52 31 -52 9 0 -6 38 -52 130 -19 39 -34 85 -36 115 -2 28
-5 69 -7 93 -2 23 0 42 4 42 14 0 70 -124 70 -155 0 -45 22 -103 70 -184 38
-66 40 -73 40 -153 0 -94 -12 -124 -58 -153 -19 -12 -35 -31 -38 -47 -6 -25
-34 -41 -34 -20 0 5 -15 16 -34 24 l-33 16 -37 -37 c-32 -33 -36 -42 -36 -89
0 -64 39 -150 61 -136 5 3 -2 22 -16 42 -37 54 -35 125 5 172 39 47 64 34 68
-34 3 -39 -1 -50 -20 -65 -22 -18 -22 -20 -5 -38 9 -11 17 -30 17 -42 0 -17 4
-22 16 -17 17 7 57 -26 294 -239 381 -342 355 -321 417 -338 32 -9 139 -32
238 -52 99 -20 188 -38 198 -41 15 -5 17 3 17 73 0 43 -7 101 -16 128 -17 55
-48 203 -59 279 l-7 49 34 -8 c18 -4 57 -9 87 -11 l54 -2 117 -117 c127 -126
136 -147 78 -169 -23 -8 -28 -16 -26 -36 2 -17 9 -25 23 -25 13 0 29 -17 50
-55 34 -61 66 -75 110 -46 13 9 42 16 64 16 37 0 45 -6 140 -107 90 -97 107
-110 163 -131 35 -12 66 -22 71 -22 27 0 -10 50 -129 170 l-136 138 1 142 c1
79 3 147 4 152 1 6 -40 20 -92 33 l-95 23 -34 -26 c-18 -14 -40 -35 -48 -46
-11 -15 -17 -18 -22 -9 -5 7 -45 51 -91 98 -51 52 -81 90 -78 99 3 8 -13 33
-37 58 l-43 45 -89 7 c-60 4 -93 11 -100 21 -6 8 -17 61 -24 117 -11 86 -17
108 -38 131 -16 17 -32 25 -43 22 -23 -8 -59 99 -59 176 0 61 13 92 104 246
48 81 49 84 56 195 9 133 36 208 53 151 31 -102 88 -235 133 -311 44 -74 58
-107 65 -159 16 -112 78 -345 109 -408 16 -33 61 -100 101 -150 80 -101 89
-119 89 -177 0 -31 3 -39 15 -34 14 5 104 -7 149 -21 18 -5 18 1 11 166 -4 95
-15 241 -24 325 l-17 153 -56 105 c-31 58 -77 137 -103 177 l-48 71 6 121 c13
235 -44 392 -203 563 -40 42 -74 69 -92 73 -15 3 -28 9 -28 13 0 4 27 28 60
54 57 45 63 47 113 44 52 -3 52 -3 55 28 3 28 -1 32 -49 55 -40 18 -60 36 -86
77 -30 46 -38 52 -68 52 -30 0 -39 7 -84 70 -48 65 -54 70 -89 70 -20 0 -55
-5 -77 -10 -22 -5 -47 -7 -55 -5 -18 6 -82 99 -150 216 l-48 84 25 46 25 46
-51 85 c-28 46 -67 103 -87 126 l-36 42 -142 0 c-123 0 -145 -2 -159 -17z
m-703 -1089 c73 -16 74 -17 63 -41 -8 -18 -8 -29 1 -44 19 -30 14 -29 -20 3
-18 17 -57 44 -85 60 -78 44 -73 47 41 22z m1133 -2130 c-3 -3 -12 -4 -19 -1
-8 3 -5 6 6 6 11 1 17 -2 13 -5z"/>
<path d="M1342 3388 c-7 -7 -12 -45 -12 -99 0 -72 3 -91 21 -113 28 -35 72
-35 104 0 23 24 25 35 25 114 0 66 -4 91 -15 100 -13 10 -19 10 -35 -5 -16
-14 -20 -31 -20 -82 0 -40 -4 -62 -10 -58 -5 3 -10 34 -10 69 0 55 -11 86 -30
86 -3 0 -11 -5 -18 -12z m33 -155 c4 -16 13 -23 29 -23 29 0 36 21 36 108 0
40 4 61 10 57 6 -3 10 -40 10 -82 0 -82 -14 -113 -53 -113 -43 0 -57 27 -57
110 0 94 14 116 18 28 1 -34 4 -73 7 -85z"/>
<path d="M570 3120 c0 -32 -9 -36 -42 -19 -33 18 -32 3 3 -43 19 -24 34 -44
34 -44 0 -1 14 -5 32 -8 29 -7 32 -5 38 23 5 24 0 40 -25 76 -17 25 -33 45
-35 45 -3 0 -5 -13 -5 -30z m30 -65 c0 -8 -4 -15 -9 -15 -13 0 -22 16 -14 24
11 11 23 6 23 -9z"/>
<path d="M694 3104 c7 -25 6 -26 -24 -20 l-32 6 32 -40 c21 -27 40 -40 56 -40
31 0 32 27 2 80 -26 46 -43 52 -34 14z"/>
<path d="M753 2986 c5 -13 121 -181 138 -200 5 -5 11 -7 14 -4 3 3 -29 53 -71
112 -72 100 -93 124 -81 92z"/>
<path d="M691 2903 c33 -49 75 -109 93 -135 30 -46 54 -64 42 -32 -11 28 -178
254 -188 254 -5 0 19 -39 53 -87z"/>
<path d="M604 2957 c-3 -9 -3 -21 1 -27 12 -19 -5 -30 -30 -18 -40 18 -40 2 0
-46 29 -35 44 -46 66 -46 26 0 29 3 29 33 0 40 -56 128 -66 104z m34 -85 c2
-7 -3 -12 -12 -12 -9 0 -16 7 -16 16 0 17 22 14 28 -4z"/>
<path d="M730 2963 c0 -6 -7 -13 -16 -15 -13 -2 -12 -7 6 -25 25 -28 40 -29
40 -5 0 20 -29 64 -30 45z"/>
<path d="M796 2838 c37 -53 84 -107 68 -78 -29 50 -88 130 -96 130 -5 0 7 -24
28 -52z"/>
<path d="M670 2803 c0 -5 65 -105 87 -132 2 -2 6 -1 9 2 4 3 -13 36 -37 71
-40 59 -59 78 -59 59z"/>
<path d="M1764 1948 c-46 -22 -57 -98 -14 -98 21 0 80 55 80 74 0 15 -21 36
-34 35 -6 0 -21 -5 -32 -11z m46 -17 c0 -5 -16 -21 -35 -35 -25 -20 -35 -23
-35 -12 0 8 12 24 28 35 29 22 42 26 42 12z"/>
<path d="M1017 1318 c8 -59 13 -61 13 -5 0 26 -4 47 -9 47 -5 0 -7 -19 -4 -42z"/>
<path d="M1014 1208 c-6 -31 -7 -55 -3 -52 11 6 22 67 17 91 -2 10 -8 -8 -14
-39z"/>
<path d="M1700 1101 c0 -5 9 -7 20 -4 11 3 20 7 20 9 0 2 -9 4 -20 4 -11 0
-20 -4 -20 -9z"/>
<path d="M1630 1060 c0 -6 7 -10 15 -10 8 0 15 2 15 4 0 2 -7 6 -15 10 -8 3
-15 1 -15 -4z"/>
<path d="M1590 1046 c0 -3 14 -12 30 -21 17 -9 30 -13 30 -11 0 3 -13 12 -30
21 -16 9 -30 13 -30 11z"/>
<path d="M1680 1030 c8 -5 20 -10 25 -10 6 0 3 5 -5 10 -8 5 -19 10 -25 10 -5
0 -3 -5 5 -10z"/>
<path d="M1783 1005 c0 -8 4 -15 9 -15 4 0 8 4 8 9 0 6 -4 12 -8 15 -5 3 -9
-1 -9 -9z"/>
<path d="M1069 979 c26 -21 42 -21 49 1 3 9 -3 11 -22 8 -14 -3 -26 -1 -26 3
0 5 -6 9 -12 9 -7 -1 -2 -10 11 -21z"/>
<path d="M1158 993 c7 -3 16 -2 19 1 4 3 -2 6 -13 5 -11 0 -14 -3 -6 -6z"/>
<path d="M1273 980 c-3 -11 -12 -20 -19 -20 -8 0 -14 -5 -14 -10 0 -7 6 -8 16
-2 9 5 24 8 33 7 9 -1 10 0 4 2 -19 7 -16 31 5 36 15 4 15 5 -1 6 -11 1 -21
-7 -24 -19z"/>
<path d="M1415 981 c-18 -7 -17 -8 7 -13 19 -4 25 -1 21 9 -3 7 -6 13 -7 12 0
0 -10 -4 -21 -8z"/>
<path d="M1120 961 c0 -6 9 -11 19 -11 11 0 28 -3 38 -6 12 -5 15 -4 8 4 -15
16 -65 26 -65 13z"/>
<path d="M1465 950 c3 -5 14 -10 23 -10 15 0 15 2 2 10 -20 13 -33 13 -25 0z"/>
<path d="M1785 950 c11 -5 27 -9 35 -9 9 0 8 4 -5 9 -11 5 -27 9 -35 9 -9 0
-8 -4 5 -9z"/>
<path d="M1208 943 c7 -3 16 -2 19 1 4 3 -2 6 -13 5 -11 0 -14 -3 -6 -6z"/>
<path d="M1078 923 c7 -3 16 -2 19 1 4 3 -2 6 -13 5 -11 0 -14 -3 -6 -6z"/>
<path d="M1590 910 c8 -5 22 -10 30 -10 13 0 13 1 0 10 -8 5 -22 10 -30 10
-13 0 -13 -1 0 -10z"/>
<path d="M1150 906 c0 -2 9 -6 20 -9 11 -3 18 -1 14 4 -5 9 -34 13 -34 5z"/>
<path d="M1475 900 c-17 -7 -15 -9 13 -9 17 -1 32 4 32 9 0 12 -17 12 -45 0z"/>
<path d="M1592 875 c9 -10 21 -16 28 -13 7 2 -1 10 -16 17 -27 12 -28 11 -12
-4z"/>
<path d="M1030 855 c13 -14 26 -25 28 -25 3 0 -5 11 -18 25 -13 14 -26 25 -28
25 -3 0 5 -11 18 -25z"/>
<path d="M1316 870 c16 -14 54 -22 54 -11 0 6 -6 11 -12 12 -7 0 -21 2 -32 4
-10 2 -15 0 -10 -5z"/>
<path d="M1545 870 c-3 -6 1 -7 9 -4 18 7 21 14 7 14 -6 0 -13 -4 -16 -10z"/>
<path d="M1191 866 c2 -1 20 -8 39 -14 32 -11 33 -10 16 3 -16 12 -69 23 -55
11z"/>
<path d="M523 823 l-73 -15 0 -134 0 -134 50 -25 c28 -14 56 -23 62 -19 6 4
30 -4 54 -16 50 -28 52 -27 122 63 l45 60 -23 17 c-17 13 -24 30 -27 71 -5 48
-11 60 -51 102 -51 52 -52 52 -159 30z m137 -49 c33 -30 40 -43 40 -73 0 -20
8 -53 18 -73 l19 -36 -35 -46 c-36 -48 -54 -55 -86 -31 -11 8 -33 15 -48 15
-16 0 -42 7 -58 15 l-30 16 0 108 0 108 68 16 c37 8 68 15 69 16 2 1 21 -15
43 -35z"/>
<path d="M1290 836 c0 -3 9 -10 20 -16 11 -6 20 -8 20 -6 0 3 -9 10 -20 16
-11 6 -20 8 -20 6z"/>
<path d="M1432 815 c0 -16 2 -22 5 -12 2 9 2 23 0 30 -3 6 -5 -1 -5 -18z"/>
<path d="M1658 833 c7 -3 16 -2 19 1 4 3 -2 6 -13 5 -11 0 -14 -3 -6 -6z"/>
<path d="M1800 800 c13 -11 26 -17 29 -14 7 6 -28 34 -42 34 -6 0 0 -9 13 -20z"/>
<path d="M1520 800 c-12 -8 -10 -10 8 -10 13 0 20 4 17 10 -7 12 -6 12 -25 0z"/>
<path d="M1733 803 c9 -2 15 -8 13 -12 -3 -4 7 -8 22 -9 l27 -2 -29 15 c-15 8
-33 14 -40 14 -6 -1 -3 -3 7 -6z"/>
<path d="M1091 797 c2 -1 13 -9 24 -17 19 -14 19 -14 6 3 -7 9 -18 17 -24 17
-6 0 -8 -1 -6 -3z"/>
<path d="M1228 793 c7 -3 16 -2 19 1 4 3 -2 6 -13 5 -11 0 -14 -3 -6 -6z"/>
<path d="M1795 760 c-3 -6 1 -7 9 -4 18 7 21 14 7 14 -6 0 -13 -4 -16 -10z"/>
<path d="M1594 741 c4 -6 11 -9 16 -6 4 3 13 -2 20 -10 7 -8 20 -15 29 -14 10
0 12 2 3 6 -6 2 -10 9 -6 14 3 5 -1 9 -8 9 -7 0 -24 3 -37 7 -17 4 -22 3 -17
-6z"/>
<path d="M1738 743 c7 -3 16 -2 19 1 4 3 -2 6 -13 5 -11 0 -14 -3 -6 -6z"/>
<path d="M1180 726 c0 -2 8 -10 18 -17 15 -13 16 -12 3 4 -13 16 -21 21 -21
13z"/>
<path d="M1270 721 c0 -6 4 -13 10 -16 6 -3 7 1 4 9 -7 18 -14 21 -14 7z"/>
<path d="M1335 700 c3 -5 8 -10 11 -10 2 0 4 5 4 10 0 6 -5 10 -11 10 -5 0 -7
-4 -4 -10z"/>
<path d="M1604 696 c11 -9 24 -16 30 -16 12 0 7 5 -24 19 -24 11 -24 11 -6 -3z"/>
<path d="M1850 706 c0 -2 7 -7 16 -10 8 -3 12 -2 9 4 -6 10 -25 14 -25 6z"/>
<path d="M1360 684 c0 -21 95 -80 104 -65 3 5 -4 11 -17 15 -12 3 -34 17 -49
31 -27 25 -38 30 -38 19z"/>
<path d="M1377 629 c7 -7 15 -10 18 -7 3 3 -2 9 -12 12 -14 6 -15 5 -6 -5z"/>
<path d="M1480 636 c0 -2 7 -7 16 -10 8 -3 12 -2 9 4 -6 10 -25 14 -25 6z"/>
<path d="M1913 600 c0 -25 2 -35 4 -22 2 12 2 32 0 45 -2 12 -4 2 -4 -23z"/>
<path d="M1290 626 c0 -2 8 -10 18 -17 15 -13 16 -12 3 4 -13 16 -21 21 -21
13z"/>
<path d="M1476 602 c-3 -6 1 -15 8 -21 8 -7 17 -8 20 -3 3 6 -1 15 -8 21 -8 7
-17 8 -20 3z"/>
<path d="M1365 560 c10 -11 20 -20 23 -20 3 0 -3 9 -13 20 -10 11 -20 20 -23
20 -3 0 3 -9 13 -20z"/>
<path d="M1516 571 c-4 -5 -2 -12 3 -15 5 -4 12 -2 15 3 4 5 2 12 -3 15 -5 4
-12 2 -15 -3z"/>
<path d="M1470 556 c0 -2 8 -10 18 -17 15 -13 16 -12 3 4 -13 16 -21 21 -21
13z"/>
<path d="M1920 482 c0 -6 -8 -13 -17 -15 -16 -4 -16 -5 -1 -6 18 -1 34 16 24
26 -3 4 -6 1 -6 -5z"/>
<path d="M1577 469 c7 -7 15 -10 18 -7 3 3 -2 9 -12 12 -14 6 -15 5 -6 -5z"/>
<path d="M1808 473 c7 -3 16 -2 19 1 4 3 -2 6 -13 5 -11 0 -14 -3 -6 -6z"/>
<path d="M1848 473 c6 -2 18 -2 25 0 6 3 1 5 -13 5 -14 0 -19 -2 -12 -5z"/>
<path d="M1760 460 c0 -6 7 -10 15 -10 8 0 15 2 15 4 0 2 -7 6 -15 10 -8 3
-15 1 -15 -4z"/>
<path d="M1775 439 c-26 -6 -25 -7 13 -6 23 0 42 3 42 7 0 8 -16 8 -55 -1z"/>
<path d="M1715 400 c-16 -7 -17 -9 -3 -9 9 -1 20 4 23 9 7 11 7 11 -20 0z"/>
<path d="M1790 400 c-12 -7 -10 -9 7 -7 12 0 19 5 17 9 -6 10 -6 10 -24 -2z"/>
<path d="M1868 383 c7 -3 16 -2 19 1 4 3 -2 6 -13 5 -11 0 -14 -3 -6 -6z"/>
</g>
</svg>
