<svg xmlns="http://www.w3.org/2000/svg" width="32" height="32" viewBox="0 0 8.467 8.467"><g transform="translate(238.257 -159.814)"><path d="m -231.31163,160.97167 c 0.34577,0.21051 0.68931,0.53357 1.07998,0.88034 0.0393,0.0352 0.0539,0.0904 0.0371,0.14024 -0.20447,0.62902 -0.64993,0.93812 -1.13663,1.11795 -0.16655,0.0649 -0.2617,-0.18627 -0.0937,-0.24736 0.4201,-0.15521 0.7647,-0.38766 0.95201,-0.86919 -0.34805,-0.31044 -0.69818,-0.628 -0.9774,-0.79799 -0.30668,-0.18671 -0.55913,-0.24761 -0.84563,-0.1305 -0.19468,0.10168 -0.28821,0.20147 -0.33982,0.31553 -0.0524,0.11576 -0.0635,0.26048 -0.0645,0.44211 -0.001,0.17659 -0.26693,0.17459 -0.2656,-0.002 0.001,-0.19108 0.0113,-0.37379 0.0898,-0.54728 0.0785,-0.17351 0.22743,-0.32397 0.46482,-0.44602 0.41883,-0.18746 0.7831,-0.0448 1.09956,0.14416 z" color="#000" font-family="sans-serif" font-weight="400" overflow="visible" style="line-height:normal;font-variant-ligatures:normal;font-variant-position:normal;font-variant-caps:normal;font-variant-numeric:normal;font-variant-alternates:normal;font-feature-settings:normal;text-indent:0;text-align:start;text-decoration-line:none;text-decoration-style:solid;text-decoration-color:#000;text-transform:none;text-orientation:mixed;shape-padding:0;isolation:auto;mix-blend-mode:normal"/><path d="m -232.17088,161.38904 c 0.22564,-0.0923 0.45353,-0.0356 0.65234,0.084 0.19881,0.11961 0.38912,0.29828 0.60352,0.48633 a 0.13230489,0.13230489 0 1 1 -0.17383,0.19922 c -0.21756,-0.19082 -0.4052,-0.36201 -0.5664,-0.45899 -0.1612,-0.097 -0.27656,-0.12345 -0.41602,-0.0664 a 0.13230489,0.13230489 0 1 1 -0.0996,-0.24414 z" color="#000" font-family="sans-serif" font-weight="400" overflow="visible" style="line-height:normal;font-variant-ligatures:normal;font-variant-position:normal;font-variant-caps:normal;font-variant-numeric:normal;font-variant-alternates:normal;font-feature-settings:normal;text-indent:0;text-align:start;text-decoration-line:none;text-decoration-style:solid;text-decoration-color:#000;text-transform:none;text-orientation:mixed;shape-padding:0;isolation:auto;mix-blend-mode:normal"/><path fill="#010203" style="line-height:normal;font-variant-ligatures:normal;font-variant-position:normal;font-variant-caps:normal;font-variant-numeric:normal;font-variant-alternates:normal;font-feature-settings:normal;text-indent:0;text-align:start;text-decoration-line:none;text-decoration-style:solid;text-decoration-color:#000;text-transform:none;text-orientation:mixed;shape-padding:0;isolation:auto;mix-blend-mode:normal" d="m -234.02348,164.97329 c -0.35062,0 -0.6711,0.0851 -0.9121,0.23242 -0.24101,0.14728 -0.41211,0.36754 -0.41211,0.62696 0,0.25941 0.1711,0.47967 0.41211,0.62695 0.241,0.14728 0.56148,0.23437 0.9121,0.23437 0.35063,0 0.66915,-0.0871 0.91016,-0.23437 0.24101,-0.14728 0.41211,-0.36754 0.41211,-0.62695 0,-0.25942 -0.1711,-0.47968 -0.41211,-0.62696 -0.24101,-0.14728 -0.55953,-0.23242 -0.91016,-0.23242 z m 0,0.26367 c 0.30694,0 0.58158,0.0793 0.77149,0.19531 0.18991,0.11606 0.28711,0.25797 0.28711,0.4004 0,0.14242 -0.0972,0.28628 -0.28711,0.40234 -0.18991,0.11606 -0.46455,0.19336 -0.77149,0.19336 -0.30693,0 -0.58352,-0.0773 -0.77343,-0.19336 -0.18992,-0.11606 -0.28516,-0.25992 -0.28516,-0.40234 0,-0.14243 0.0952,-0.28434 0.28516,-0.4004 0.18991,-0.11605 0.4665,-0.19531 0.77343,-0.19531 z" color="#000" font-family="sans-serif" font-weight="400" overflow="visible"/><path style="line-height:normal;font-variant-ligatures:normal;font-variant-position:normal;font-variant-caps:normal;font-variant-numeric:normal;font-variant-alternates:normal;font-feature-settings:normal;text-indent:0;text-align:start;text-decoration-line:none;text-decoration-style:solid;text-decoration-color:#000;text-transform:none;text-orientation:mixed;shape-padding:0;isolation:auto;mix-blend-mode:normal" d="M-234.41996 165.76626a.13281.13281 0 1 0 0 .26562h.12891a.13281.13281 0 1 0 0-.26562zM-233.75785 165.76626a.13281.13281 0 1 0 0 .26562h.12891a.13281.13281 0 1 0 0-.26562z" color="#000" font-family="sans-serif" font-weight="400" overflow="visible"/><path fill="#010203" style="line-height:normal;font-variant-ligatures:normal;font-variant-position:normal;font-variant-caps:normal;font-variant-numeric:normal;font-variant-alternates:normal;font-feature-settings:normal;text-indent:0;text-align:start;text-decoration-line:none;text-decoration-style:solid;text-decoration-color:#000;text-transform:none;text-orientation:mixed;shape-padding:0;isolation:auto;mix-blend-mode:normal" d="M-235.21488 163.78188c-.2355 0-.39649.22304-.39649.46289 0 .23986.16099.46485.39649.46485.23549 0 .39648-.22499.39648-.46485 0-.23985-.16099-.46289-.39648-.46289zm0 .26563c.0567 0 .13281.0718.13281.19726 0 .12546-.0761.19922-.13281.19922-.0568 0-.13281-.0738-.13281-.19922 0-.12546.0761-.19726.13281-.19726zM-232.83402 163.78188c-.2355 0-.39649.22304-.39649.46289 0 .23986.16099.46485.39649.46485.23549 0 .39648-.22499.39648-.46485 0-.23985-.16099-.46289-.39648-.46289zm0 .26563c.0567 0 .13281.0718.13281.19726 0 .12546-.0761.19922-.13281.19922-.0568 0-.13086-.0738-.13086-.19922 0-.12546.0741-.19726.13086-.19726z" color="#000" font-family="sans-serif" font-weight="400" overflow="visible"/><path fill="#010203" style="line-height:normal;font-variant-ligatures:normal;font-variant-position:normal;font-variant-caps:normal;font-variant-numeric:normal;font-variant-alternates:normal;font-feature-settings:normal;text-indent:0;text-align:start;text-decoration-line:none;text-decoration-style:solid;text-decoration-color:#000;text-transform:none;text-orientation:mixed;shape-padding:0;isolation:auto;mix-blend-mode:normal" d="m -234.03324,161.53384 c -1.82799,0 -3.29883,1.53288 -3.29883,3.14843 0,0.80778 0.37848,1.48446 0.97852,1.94922 0.60004,0.46476 1.41824,0.72266 2.32031,0.72266 0.90206,0 1.72602,-0.2581 2.33008,-0.72266 0.60406,-0.46455 0.98633,-1.14097 0.98633,-1.94922 -1e-5,-1.61648 -1.48842,-3.14843 -3.31641,-3.14843 z m 0,0.26367 c 1.67901,0 3.05272,1.43263 3.05273,2.88476 0,0.72607 -0.33366,1.31791 -0.88281,1.74024 -0.54915,0.42233 -1.31848,0.66797 -2.16992,0.66797 -0.85144,0 -1.61321,-0.24585 -2.1582,-0.66797 -0.545,-0.42213 -0.87501,-1.0137 -0.875,-1.74024 0,-1.45307 1.35419,-2.88476 3.0332,-2.88476 z" color="#000" font-family="sans-serif" font-weight="400" overflow="visible"/><path style="line-height:normal;font-variant-ligatures:normal;font-variant-position:normal;font-variant-caps:normal;font-variant-numeric:normal;font-variant-alternates:normal;font-feature-settings:normal;text-indent:0;text-align:start;text-decoration-line:none;text-decoration-style:solid;text-decoration-color:#000;text-transform:none;text-orientation:mixed;shape-padding:0;isolation:auto;mix-blend-mode:normal" d="m -236.73646,160.97167 c -0.34577,0.21051 -0.68931,0.53357 -1.07998,0.88034 -0.0393,0.0352 -0.0539,0.0904 -0.0371,0.14024 0.20446,0.62902 0.64993,0.93812 1.13663,1.11795 0.16654,0.0649 0.2617,-0.18627 0.0937,-0.24736 -0.42011,-0.15521 -0.76471,-0.38766 -0.95201,-0.86919 0.34805,-0.31044 0.69817,-0.628 0.9774,-0.79799 0.30667,-0.18671 0.55912,-0.24761 0.84563,-0.1305 0.19467,0.10168 0.28821,0.20147 0.33981,0.31553 0.0524,0.11576 0.0635,0.26048 0.0645,0.44211 0.001,0.17659 0.26692,0.17459 0.26559,-0.002 -0.001,-0.19108 -0.0113,-0.37379 -0.0898,-0.54728 -0.0785,-0.17351 -0.22743,-0.32397 -0.46481,-0.44602 -0.41884,-0.18746 -0.78311,-0.0448 -1.09956,0.14416 z" color="#000" font-family="sans-serif" font-weight="400" overflow="visible"/><path style="line-height:normal;font-variant-ligatures:normal;font-variant-position:normal;font-variant-caps:normal;font-variant-numeric:normal;font-variant-alternates:normal;font-feature-settings:normal;text-indent:0;text-align:start;text-decoration-line:none;text-decoration-style:solid;text-decoration-color:#000;text-transform:none;text-orientation:mixed;shape-padding:0;isolation:auto;mix-blend-mode:normal" d="m -235.87699,161.36587 c -0.22564,-0.0923 -0.45353,-0.0356 -0.65234,0.084 -0.19881,0.11961 -0.38912,0.29828 -0.60352,0.48633 a 0.13230489,0.13230489 0 1 0 0.17383,0.19922 c 0.21756,-0.19082 0.4052,-0.36201 0.5664,-0.45899 0.1612,-0.097 0.27656,-0.12345 0.41602,-0.0664 a 0.13230489,0.13230489 0 1 0 0.0996,-0.24414 z" color="#000" font-family="sans-serif" font-weight="400" overflow="visible"/></g></svg>